# xmcd CD database file
#
# Track frame offsets:
#	150
#	11525
#	21907
#	46887
#	58077
#	75685
#	112577
#	124117
#	144305
#	153332
#	164552
#	185720
#
# Disc length: 2719 seconds
#
# Revision: 0
# Processed by: cddbd v1.5PL3 Copyright (c) Steve Scherf et al.
# Submitted via: CDex 1.50beta8
#
DISCID=950a9d0c
DTITLE=デキシード・ザ・エモンズ - ROYAL LOUNGE
DYEAR=1900
DGENRE=New Age
TTITLE0=雨宿り
TTITLE1=噂なあの娘
TTITLE2=レイプ・ド・ソウル
TTITLE3=OH! ピエール
TTITLE4=夕暮れ、ひぐらし
TTITLE5=エレガント・ティータイム
TTITLE6=恋のレモネード
TTITLE7=バショワ・ココ
TTITLE8=Drum'n Rape
TTITLE9=虹をつかもう
TTITLE10=愛の炎
TTITLE11=ビヤ・フォルン・ツヴァイ
EXTD=
EXTT0=
EXTT1=
EXTT2=
EXTT3=
EXTT4=
EXTT5=
EXTT6=
EXTT7=
EXTT8=
EXTT9=
EXTT10=
EXTT11=
PLAYORDER=
